<?xml version="1.0" encoding="utf-8"?>
<!-- Generator: Adobe Illustrator 22.0.1, SVG Export Plug-In . SVG Version: 6.00 Build 0)  -->
<svg version="1.1" id="Layer_1" xmlns="http://www.w3.org/2000/svg" xmlns:xlink="http://www.w3.org/1999/xlink" x="0px" y="0px"
	 viewBox="0 0 612 792" style="enable-background:new 0 0 612 792;" xml:space="preserve">
<style type="text/css">
	.st0{fill:url(#SVGID_1_);}
</style>
<radialGradient id="SVGID_1_" cx="307.2632" cy="396.8" r="191.9684" gradientTransform="matrix(1 0 0 0.9 0 39.68)" gradientUnits="userSpaceOnUse">
	<stop  offset="0" style="stop-color:#4A82C3"/>
	<stop  offset="1" style="stop-color:#7C56A3"/>
</radialGradient>
<path class="st0" d="M318.4,588.8c-7.5,0-14.9,0-22.4,0c-6.7-0.9-13.5-1.5-20.2-2.6c-40.5-7.1-76-24.5-104.7-54.1
	C125.9,485.3,108,429.3,118,365c5.8-37.1,21.9-69.7,47.3-97.4c28.2-30.8,62.9-50.5,103.9-58.8c8.6-1.7,17.3-2.7,26-4c8,0,16,0,24,0
	c7.2,1,14.5,1.8,21.7,3.1c79.4,14.2,140.8,75.5,155.2,154.8c1.3,7.3,2.1,14.7,3.1,22.1c0,7.7,0,15.5,0,23.2
	c-1.1,7.8-1.9,15.6-3.2,23.3c-13.6,76.7-73.9,138.2-150.3,153.5C336.6,586.6,327.5,587.5,318.4,588.8z M306.9,243.2
	c-84,0-153.2,68.8-153.3,152.3c-0.1,85.8,68.2,154.8,153.3,154.8c84.8,0,153.9-68.7,153.9-153C460.8,311.9,392.2,243.2,306.9,243.2z
	 M259.9,398c0,19.7-0.1,39.5,0.1,59.2c0.1,9.4,6.8,13.3,15.3,9.2c1.1-0.5,2.1-1.1,3.2-1.7c31.6-18.2,63.2-36.5,94.8-54.7
	c13.5-7.8,13.5-15-0.1-22.9c-19.2-11.2-38.4-22.4-57.6-33.6c-13.3-7.8-26.6-15.7-40.1-23.3c-9-5.1-15.8-1-16.1,9.4
	c0,1.2,0,2.4,0,3.6c0,18.3,0,36.5,0,54.8C259.5,398,259.7,398,259.9,398z"/>
</svg>
